<svg width="17" height="16" viewBox="0 0 17 16" fill="none" xmlns="http://www.w3.org/2000/svg">
<path d="M0.0786133 7.96784C0.0795405 11.8881 2.93022 15.226 6.802 15.8404V10.2709H4.78029V7.96784H6.8044V6.21468C6.71391 5.38394 6.99766 4.55601 7.57869 3.95543C8.15972 3.35484 8.9778 3.04385 9.81107 3.10679C10.4092 3.11645 11.0058 3.16972 11.5961 3.26617V5.22573H10.5888C10.2421 5.18031 9.89344 5.29484 9.64115 5.53705C9.38887 5.77926 9.26024 6.12294 9.2915 6.47127V7.96784H11.4997L11.1467 10.2717H9.2915V15.8404C13.4788 15.1786 16.415 11.3545 15.9731 7.13833C15.5311 2.9222 11.8657 -0.209937 7.63223 0.0110009C3.39876 0.231939 0.0792862 3.72861 0.0786133 7.96784Z" fill="#027A39"/>
</svg>
