<svg width="15" height="16" viewBox="0 0 15 16" fill="none" xmlns="http://www.w3.org/2000/svg">
<path d="M7.53288 15.1696C5.57252 15.1696 5.34142 15.1593 4.57641 15.1258C3.97983 15.1062 3.39097 14.9849 2.83519 14.7672C1.87359 14.393 1.11322 13.6323 0.739364 12.6706C0.530025 12.1128 0.417115 11.5235 0.405466 10.9278C0.36084 10.1644 0.36084 9.91413 0.36084 7.96892C0.36084 6.00298 0.371199 5.77348 0.405466 5.01244C0.41737 4.41758 0.530276 3.82906 0.739364 3.27203C1.11281 2.309 1.87442 1.54769 2.83758 1.1746C3.39433 0.964384 3.983 0.851179 4.578 0.839907C5.33903 0.796875 5.58926 0.796875 7.53288 0.796875C9.50918 0.796875 9.73629 0.807235 10.4894 0.839907C11.0859 0.851276 11.6761 0.964469 12.2346 1.1746C13.1974 1.54811 13.9589 2.30928 14.3328 3.27203C14.5456 3.83718 14.6592 4.43489 14.6683 5.03874C14.7129 5.80216 14.7129 6.05159 14.7129 7.99601C14.7129 9.94043 14.7017 10.1954 14.6683 10.9501C14.6564 11.5463 14.5432 12.1362 14.3336 12.6945C13.9588 13.6569 13.1973 14.4178 12.2346 14.7919C11.6769 15.0009 11.0879 15.1138 10.4925 15.1258C9.73151 15.1696 9.48208 15.1696 7.53288 15.1696ZM7.50579 2.05836C5.55659 2.05836 5.35418 2.06792 4.59314 2.10219C4.1389 2.1082 3.68905 2.19203 3.26313 2.35002C2.63418 2.59069 2.1365 3.08634 1.89327 3.7143C1.73406 4.14486 1.65022 4.59963 1.64543 5.05866C1.6032 5.83085 1.6032 6.03326 1.6032 7.96892C1.6032 9.88146 1.61037 10.1134 1.64543 10.8808C1.65257 11.3352 1.73635 11.7851 1.89327 12.2116C2.13686 12.8391 2.63445 13.3344 3.26313 13.5751C3.68876 13.7341 4.13879 13.818 4.59314 13.8229C5.36453 13.8675 5.56774 13.8675 7.50579 13.8675C9.46057 13.8675 9.66298 13.858 10.4176 13.8229C10.8722 13.8174 11.3224 13.7335 11.7484 13.5751C12.3736 13.3323 12.868 12.8382 13.1111 12.2132C13.27 11.7823 13.3539 11.3273 13.359 10.868H13.3677C13.402 10.1062 13.402 9.90298 13.402 7.95617C13.402 6.00936 13.3932 5.80455 13.359 5.04352C13.3518 4.58965 13.268 4.14025 13.1111 3.7143C12.8686 3.0884 12.3741 2.59331 11.7484 2.35002C11.3225 2.19123 10.8722 2.10738 10.4176 2.10219C9.64704 2.05836 9.44543 2.05836 7.50579 2.05836ZM7.53288 11.6498C6.04268 11.6507 4.69867 10.7538 4.12765 9.37739C3.55663 8.00094 3.87108 6.41603 4.92436 5.36185C5.97763 4.30766 7.56226 3.99184 8.93921 4.56166C10.3162 5.13149 11.2142 6.47473 11.2145 7.96493C11.2123 9.99786 9.56581 11.6458 7.53288 11.6498ZM7.53288 5.57266C6.21255 5.57266 5.1422 6.643 5.1422 7.96334C5.1422 9.28368 6.21255 10.354 7.53288 10.354C8.85322 10.354 9.92356 9.28368 9.92356 7.96334C9.9205 6.64427 8.85195 5.57573 7.53288 5.57266ZM11.358 5.00448C10.8842 5.00271 10.5012 4.61765 10.5021 4.14383C10.503 3.67002 10.8873 3.28638 11.3612 3.28638C11.835 3.28638 12.2193 3.67001 12.2202 4.14383C12.2204 4.37243 12.1296 4.5917 11.9678 4.75319C11.806 4.91469 11.5866 5.00511 11.358 5.00448Z" fill="#027A39"/>
</svg>
