<svg width="17" height="15" viewBox="0 0 17 15" fill="none" xmlns="http://www.w3.org/2000/svg">
<path d="M14.7059 2.93191C15.4202 2.50485 15.9547 1.83239 16.2096 1.04009C15.5383 1.43838 14.8039 1.71894 14.0381 1.86965C12.9763 0.746453 11.294 0.473118 9.93121 1.20238C8.56843 1.93164 7.86255 3.48296 8.208 4.98949C5.45841 4.85145 2.89668 3.55263 1.16028 1.41622C0.254081 2.97926 0.717166 4.97736 2.21855 5.98242C1.67564 5.96497 1.14476 5.81797 0.670187 5.55369C0.670187 5.56804 0.670187 5.58238 0.670187 5.59672C0.670501 7.2249 1.81801 8.62737 3.41389 8.95005C2.91031 9.08706 2.38208 9.10723 1.86951 9.00902C2.31832 10.4014 3.6016 11.3553 5.06426 11.3838C3.85285 12.3346 2.35679 12.8502 0.816816 12.8477C0.543857 12.8481 0.271111 12.8324 0 12.8006C1.56382 13.8055 3.3839 14.3389 5.24276 14.3371C7.82888 14.3548 10.3142 13.3353 12.1428 11.5065C13.9715 9.67772 14.9908 7.1923 14.9728 4.60619C14.9728 4.45796 14.9694 4.31054 14.9625 4.16391C15.6322 3.67988 16.2103 3.08025 16.6694 2.39321C16.0455 2.66978 15.3836 2.85136 14.7059 2.93191Z" fill="#027A39"/>
</svg>
