<svg width="16" height="12" viewBox="0 0 16 12" fill="none" xmlns="http://www.w3.org/2000/svg">
<path d="M8.03422 11.5567H8.01828C7.96888 11.5567 3.02575 11.5471 1.77861 11.2085C1.09282 11.0237 0.557248 10.4878 0.372887 9.80194C0.148624 8.53676 0.0403283 7.25375 0.0493483 5.96888C0.0435542 4.68191 0.15478 3.39707 0.381653 2.13024C0.57108 1.44373 1.1043 0.905378 1.78897 0.709382C3.00184 0.390625 7.8087 0.390625 8.01271 0.390625H8.02944C8.07965 0.390625 13.0355 0.400188 14.2699 0.738868C14.9543 0.924551 15.4887 1.45934 15.674 2.14379C15.9054 3.41367 16.0141 4.70289 15.9984 5.99358C16.004 7.279 15.8925 8.56225 15.6653 9.82744C15.4785 10.5125 14.9426 11.0472 14.2572 11.2324C13.0459 11.5535 8.23823 11.5567 8.03422 11.5567ZM6.44043 3.58218L6.43645 8.36355L10.5899 5.97286L6.44043 3.58218Z" fill="#027A39"/>
</svg>
